<?xml version="1.0" encoding="UTF-8"?>
<svg width="1366px" height="522px" viewBox="0 0 1366 522" version="1.1" xmlns="http://www.w3.org/2000/svg" xmlns:xlink="http://www.w3.org/1999/xlink">
    <!-- Generator: Sketch 61.2 (89653) - https://sketch.com -->
    <title>Group 13</title>
    <desc>Created with Sketch.</desc>
    <defs>
        <polygon id="path-1" points="0.400451104 447.840486 29.3177918 447.840486 29.3177918 245.264044 40.554817 245.264044 40.554817 124.041411 53.6631609 124.041411 53.6631609 43.9479937 79.0383628 43.9479937 79.0383628 0.133793103 82.6093612 0.133793103 82.6093612 43.9479937 90.4728486 43.9479937 90.4728486 8.94741379 94.0453659 8.94741379 94.0453659 43.9479937 134.186062 43.9479937 134.186062 91.5707367 141.470838 91.5707367 141.470838 124.041411 161.865476 124.041411 161.865476 245.264044 169.765418 245.264044 169.765418 447.840486 598.945962 447.840486 582.919759 89.7478056 729.18032 119.962241 729.18032 447.840486 961.261801 447.840486 961.261801 484.616865 0.400451104 484.616865 0.400451104 447.840486"></polygon>
        <linearGradient x1="50.0000142%" y1="100.000094%" x2="50.0000142%" y2="6.38297872e-05%" id="linearGradient-3">
            <stop stop-color="#646464" offset="0%"></stop>
            <stop stop-color="#3D3A3D" offset="100%"></stop>
        </linearGradient>
        <path d="M279.578451,0.10925 L279.578451,33.3515972 L275.433206,33.3515972 L275.433206,52.7449896 L263.618497,52.7449896 L263.618497,75.8301215 L241.704877,75.8301215 L241.704877,136.469941 L237.149663,136.469941 L237.149663,246.559042 L203.170798,246.559042 L203.170798,343.659531 L90.4459356,343.659531 L90.4459356,155.908854 L99.5077761,155.908854 L99.5077761,152.953035 L90.4459356,152.953035 L90.4459356,147.665031 L78.9637577,147.665031 L78.9637577,138.976622 L0.399969325,138.976622 L0.399969325,435.502365 L988.262055,435.502365 L988.262055,395.020687 L986.03911,395.020687 L986.03911,361.980149 L939.295015,361.980149 L921.602561,231.925611 L918.94839,231.925611 L918.94839,216.301344 L909.655752,216.301344 L909.655752,231.925611 L907.35385,231.925611 L907.35385,226.082253 L900.849003,226.082253 L900.849003,231.925611 L887.37316,231.925611 L887.37316,218.30426 L883.653067,218.30426 L883.653067,208.837444 L857.167531,208.837444 L857.167531,218.30426 L853.450475,218.30426 L853.450475,231.925611 L849.73342,231.925611 L849.73342,310.036326 L826.187515,310.036326 L826.187515,111.841653 L818.44365,111.841653 L818.44365,68.3783611 L815.965613,68.3783611 L815.965613,111.841653 L810.080276,111.841653 L810.080276,51.5462743 L807.602239,51.5462743 L807.602239,111.841653 L802.491288,111.841653 L802.491288,79.2047326 L800.013252,79.2047326 L800.013252,111.841653 L754.318374,111.841653 L754.318374,252.522271 L703.514064,252.522271 L703.514064,343.659531 L656.066948,343.659531 L618.392285,274.657535 C624.742255,271.024972 630.71566,266.654972 636.195583,261.586986 L636.195583,261.586986 L643.921227,269.779219 C642.263129,271.220712 641.213911,273.335913 641.213911,275.69541 L641.213911,275.69541 C641.213911,280.03658 644.754831,283.553823 649.121764,283.553823 L649.121764,283.553823 C653.488696,283.553823 657.029617,280.03658 657.029617,275.69541 L657.029617,275.69541 C657.029617,271.357274 653.488696,267.840031 649.121764,267.840031 L649.121764,267.840031 C647.446963,267.840031 645.896672,268.357451 644.616656,269.240556 L644.616656,269.240556 L636.83635,260.987628 C637.493819,260.368545 638.146733,259.741875 638.790537,259.101549 L638.790537,259.101549 C646.944371,250.99884 653.473512,241.715625 658.218528,231.637312 L658.218528,231.637312 L666.823328,235.583969 C666.666933,236.200017 666.58342,236.843378 666.58342,237.507983 L666.58342,237.507983 C666.58342,241.846118 670.12434,245.364878 674.491273,245.364878 L674.491273,245.364878 C678.858206,245.364878 682.397607,241.846118 682.397607,237.507983 L682.397607,237.507983 C682.397607,233.16833 678.858206,229.649569 674.491273,229.649569 L674.491273,229.649569 C671.103712,229.649569 668.212669,231.767806 667.087531,234.744868 L667.087531,234.744868 L658.5875,230.84525 C663.827515,219.445316 666.797515,207.054545 667.263666,194.22374 L667.263666,194.22374 L676.525936,194.52266 C676.639816,198.765201 680.133666,202.168642 684.429233,202.168642 L684.429233,202.168642 C688.796166,202.168642 692.335567,198.648365 692.335567,194.310229 L692.335567,194.310229 C692.335567,189.972094 688.796166,186.453333 684.429233,186.453333 L684.429233,186.453333 C680.285506,186.453333 676.888834,189.620066 676.55023,193.650177 L676.55023,193.650177 L667.289479,193.351257 C667.315291,192.449944 667.328957,191.547115 667.328957,190.644285 L667.328957,190.644285 C667.328957,179.189726 665.339847,168.043191 661.527132,157.585538 L661.527132,157.585538 L669.264923,154.75566 C670.478129,157.541535 673.270475,159.491344 676.52138,159.491344 L676.52138,159.491344 C680.888313,159.491344 684.429233,155.972583 684.429233,151.634448 L684.429233,151.634448 C684.429233,147.294795 680.888313,143.776035 676.52138,143.776035 L676.52138,143.776035 C672.152929,143.776035 668.613528,147.294795 668.613528,151.634448 L668.613528,151.634448 C668.613528,152.434097 668.735,153.207951 668.959724,153.936285 L668.959724,153.936285 L661.223451,156.764646 C656.81704,145.018753 650.09658,134.165069 641.292868,124.7635 L641.292868,124.7635 L647.346748,119.126503 C648.766457,120.47392 650.688758,121.300882 652.806933,121.300882 L652.806933,121.300882 C657.173865,121.300882 660.714785,117.785156 660.714785,113.443986 L660.714785,113.443986 C660.714785,109.105851 657.173865,105.588608 652.806933,105.588608 L652.806933,105.588608 C648.438482,105.588608 644.89908,109.105851 644.89908,113.443986 L644.89908,113.443986 C644.89908,115.366483 645.594509,117.125104 646.74546,118.490729 L646.74546,118.490729 L640.690061,124.127726 C640.067515,123.472226 639.43434,122.82583 638.790537,122.185503 L638.790537,122.185503 C629.623926,113.076785 618.952577,106.007399 607.332224,101.204951 L607.332224,101.204951 L610.663604,93.1477639 C611.41977,93.3859896 612.223006,93.5164826 613.058129,93.5164826 L613.058129,93.5164826 C617.425061,93.5164826 620.964463,89.9977222 620.964463,85.6580694 L620.964463,85.6580694 C620.964463,81.319934 617.425061,77.802691 613.058129,77.802691 L613.058129,77.802691 C608.691196,77.802691 605.148758,81.319934 605.148758,85.6580694 L605.148758,85.6580694 C605.148758,88.8597014 607.07865,91.6106771 609.842147,92.8367049 L609.842147,92.8367049 L606.519877,100.874167 C596.124877,96.6877674 584.985859,94.3055104 573.497607,93.8927882 L573.497607,93.8927882 L573.858988,82.8812986 C573.9425,82.882816 574.026012,82.8873681 574.111043,82.8873681 L574.111043,82.8873681 C578.476457,82.8873681 582.017377,79.3716424 582.017377,75.0304722 L582.017377,75.0304722 C582.017377,70.6908194 578.476457,67.1735764 574.111043,67.1735764 L574.111043,67.1735764 C569.742592,67.1735764 566.201672,70.6908194 566.201672,75.0304722 L566.201672,75.0304722 C566.201672,78.9892674 569.150414,82.2637326 572.98135,82.8069479 L572.98135,82.8069479 L572.619969,93.8654757 C571.713482,93.8411979 570.803957,93.829059 569.892914,93.829059 L569.892914,93.829059 C558.832853,93.829059 548.053696,95.648375 537.901641,99.1428576 L537.901641,99.1428576 L534.714509,90.1555278 C537.591887,88.9795729 539.61592,86.1694201 539.61592,82.8873681 L539.61592,82.8873681 C539.61592,78.5492326 536.076518,75.0304722 531.708067,75.0304722 L531.708067,75.0304722 C527.342653,75.0304722 523.800215,78.5492326 523.800215,82.8873681 L523.800215,82.8873681 C523.800215,87.2270208 527.342653,90.7457812 531.708067,90.7457812 L531.708067,90.7457812 C532.462715,90.7457812 533.193067,90.6380486 533.883942,90.4407917 L533.883942,90.4407917 L537.07411,99.4326736 C524.762883,103.795087 513.394586,110.636868 503.591764,119.698549 L503.591764,119.698549 L497.814233,113.569927 C499.106396,112.172437 499.895966,110.306083 499.895966,108.257646 L499.895966,108.257646 C499.895966,103.917993 496.355046,100.402267 491.988113,100.402267 L491.988113,100.402267 C487.621181,100.402267 484.081779,103.917993 484.081779,108.257646 L484.081779,108.257646 C484.081779,112.598816 487.621181,116.116059 491.988113,116.116059 L491.988113,116.116059 C493.975706,116.116059 495.793236,115.384691 497.182577,114.179906 L497.182577,114.179906 L502.950997,120.296389 C502.293528,120.915472 501.640613,121.545177 500.99681,122.185503 L500.99681,122.185503 C492.841457,130.285177 486.313834,139.571427 481.568819,149.648222 L481.568819,149.648222 L474.225813,146.279681 C474.491534,145.493687 474.637301,144.653069 474.637301,143.776035 L474.637301,143.776035 C474.637301,139.437899 471.097899,135.920656 466.729448,135.920656 L466.729448,135.920656 C462.362515,135.920656 458.823113,139.437899 458.823113,143.776035 L458.823113,143.776035 C458.823113,148.117205 462.362515,151.634448 466.729448,151.634448 L466.729448,151.634448 C469.904433,151.634448 472.642117,149.775681 473.900874,147.092986 L473.900874,147.092986 L481.198328,150.440285 C475.959831,161.840219 472.989831,174.23099 472.523681,187.061795 L472.523681,187.061795 L463.097423,186.756806 C462.982025,182.517299 459.488175,179.11841 455.195644,179.11841 L455.195644,179.11841 C450.828712,179.11841 447.287791,182.635653 447.287791,186.975306 L447.287791,186.975306 C447.287791,191.313441 450.828712,194.832201 455.195644,194.832201 L455.195644,194.832201 C459.34089,194.832201 462.737561,191.662434 463.074647,187.629288 L463.074647,187.629288 L472.49635,187.934278 C472.472055,188.834073 472.45839,189.73842 472.45839,190.644285 L472.45839,190.644285 C472.45839,202.095809 474.4475,213.243861 478.260215,223.699997 L478.260215,223.699997 L470.523942,226.531392 C469.309218,223.744 466.516871,221.794191 463.265966,221.794191 L463.265966,221.794191 C458.899034,221.794191 455.358113,225.311434 455.358113,229.649569 L455.358113,229.649569 C455.358113,233.989222 458.899034,237.507983 463.265966,237.507983 L463.265966,237.507983 C467.632899,237.507983 471.173819,233.989222 471.173819,229.649569 L471.173819,229.649569 C471.173819,228.84992 471.052347,228.076066 470.827623,227.350767 L470.827623,227.350767 L478.562377,224.520889 C482.968788,236.265264 489.690767,247.118948 498.494479,256.522035 L498.494479,256.522035 L492.440598,262.159031 C491.02089,260.811615 489.098589,259.983135 486.980414,259.983135 L486.980414,259.983135 C482.613482,259.983135 479.072561,263.500378 479.072561,267.840031 L479.072561,267.840031 C479.072561,272.179684 482.613482,275.69541 486.980414,275.69541 L486.980414,275.69541 C491.348865,275.69541 494.888267,272.179684 494.888267,267.840031 L494.888267,267.840031 C494.888267,265.917535 494.194356,264.158913 493.041887,262.794806 L493.041887,262.794806 L499.095767,257.157809 C499.718313,257.811792 500.353006,258.461222 500.99681,259.101549 L500.99681,259.101549 C507.170644,265.234722 514.026242,270.443823 521.395061,274.657535 L521.395061,274.657535 L483.71888,343.659531 L453.206534,343.659531 L453.206534,296.880806 L440.767761,296.880806 L440.767761,208.056003 L445.60388,208.056003 L445.60388,206.124403 L338.718804,206.124403 L338.718804,208.056003 L343.554923,208.056003 L343.554923,252.850021 L333.076411,252.850021 L323.079233,303.906187 L323.079233,136.469941 L318.692561,136.469941 L318.692561,75.8301215 L296.610399,75.8301215 L296.610399,52.7449896 L284.79569,52.7449896 L284.79569,33.3515972 L280.650445,33.3515972 L280.650445,0.10925 L279.578451,0.10925 Z M538.779279,101.614639 C548.651948,98.2172674 559.136534,96.4480243 569.892914,96.4480243 L569.892914,96.4480243 C570.776626,96.4480243 571.655782,96.4601632 572.534939,96.484441 L572.534939,96.484441 L571.64819,123.59058 C571.063604,123.575406 570.479018,123.567819 569.892914,123.567819 L569.892914,123.567819 C562.183972,123.567819 554.775675,124.862128 547.868451,127.238316 L547.868451,127.238316 L538.779279,101.614639 Z M572.525828,123.622444 L573.414095,96.5117535 C584.580445,96.9123368 595.411227,99.2293472 605.51773,103.297392 L605.51773,103.297392 L595.128804,128.433997 C588.100107,125.60867 580.488344,123.928951 572.525828,123.622444 L572.525828,123.622444 Z M505.392592,121.610424 C514.925138,112.800625 525.980644,106.148514 537.95023,101.904455 L537.95023,101.904455 L547.04092,127.528132 C538.446748,130.609892 530.65885,135.377441 524.08112,141.42716 L524.08112,141.42716 L505.392592,121.610424 Z M595.942669,128.764781 L606.331595,103.628177 C617.633083,108.301649 628.01138,115.17833 636.927454,124.036684 L636.927454,124.036684 C637.55,124.657285 638.163436,125.285472 638.767761,125.916694 L638.767761,125.916694 L618.826549,144.484642 C612.421917,137.783976 604.64161,132.395826 595.942669,128.764781 L595.942669,128.764781 Z M483.963344,150.746792 C488.579294,140.946156 494.930782,131.91634 502.859893,124.036684 L502.859893,124.036684 C503.483957,123.416083 504.115613,122.807622 504.753344,122.206747 L504.753344,122.206747 L523.438834,142.020448 C517.384954,147.73483 512.398512,154.550816 508.796856,162.137622 L508.796856,162.137622 L483.963344,150.746792 Z M548.30727,128.471931 C555.076319,126.145816 562.337331,124.877302 569.892914,124.877302 L569.892914,124.877302 C570.465353,124.877302 571.036273,124.884889 571.604156,124.898545 L571.604156,124.898545 L569.627193,185.366903 C569.255184,185.385111 568.893804,185.441253 568.547607,185.530778 L568.547607,185.530778 L548.30727,128.471931 Z M570.503313,185.395733 L572.483313,124.931927 C580.283359,125.232365 587.741764,126.878701 594.629248,129.644851 L594.629248,129.644851 L571.500905,185.605128 C571.180521,185.5065 570.846472,185.435184 570.503313,185.395733 L570.503313,185.395733 Z M619.426319,145.123451 L639.370567,126.553986 C647.929816,135.697604 654.465031,146.250851 658.748451,157.67051 L658.748451,157.67051 L633.087408,167.058424 C629.979233,158.867708 625.304064,151.435674 619.426319,145.123451 L619.426319,145.123451 Z M524.983052,142.38158 C531.428681,136.456285 539.058666,131.78433 547.476702,128.763264 L547.476702,128.763264 L567.71704,185.823628 C567.313144,186.002677 566.93658,186.233316 566.591902,186.504924 L566.591902,186.504924 L524.983052,142.38158 Z M572.313252,185.938948 L595.441595,129.975635 C603.967439,133.533847 611.589831,138.815781 617.865399,145.379885 L617.865399,145.379885 L573.458129,186.724941 C573.114969,186.415399 572.729294,186.149861 572.313252,185.938948 L572.313252,185.938948 Z M509.993359,162.686906 C513.522132,155.251837 518.409877,148.573931 524.340767,142.976385 L524.340767,142.976385 L565.951135,187.098212 C565.689969,187.38651 565.46069,187.702122 565.267853,188.040493 L565.267853,188.040493 L509.993359,162.686906 Z M574.059417,187.362233 L618.465169,146.017177 C624.224479,152.201941 628.805506,159.485274 631.849908,167.510597 L631.849908,167.510597 L574.712331,188.413764 C574.536196,188.035941 574.317546,187.683913 574.059417,187.362233 L574.059417,187.362233 Z M475.158113,187.146767 C475.612117,174.671024 478.500123,162.62166 483.594371,151.538854 L483.594371,151.538854 L508.424847,162.928167 C504.894555,170.630292 502.790046,179.109306 502.445368,188.026837 L502.445368,188.026837 L475.158113,187.146767 Z M637.375383,192.386215 C637.392086,191.806583 637.39816,191.225434 637.39816,190.644285 L637.39816,190.644285 C637.39816,182.653861 635.983006,174.98967 633.392607,167.877799 L633.392607,167.877799 L659.052132,158.489885 C662.760077,168.660757 664.693006,179.503819 664.693006,190.644285 L664.693006,190.644285 C664.693006,191.519802 664.67934,192.392285 664.656564,193.266285 L664.656564,193.266285 L637.375383,192.386215 Z M503.761825,188.07084 C504.101948,179.332358 506.162423,171.023288 509.62135,163.477451 L509.62135,163.477451 L564.89888,188.831038 C564.757669,189.214931 564.662009,189.617031 564.61342,190.034306 L564.61342,190.034306 L503.761825,188.07084 Z M575.204294,190.378747 C575.183037,189.982715 575.119264,189.60034 575.016012,189.233139 L575.016012,189.233139 L632.156626,168.329972 C634.69388,175.299212 636.080184,182.813184 636.080184,190.644285 L636.080184,190.644285 C636.080184,191.21026 636.07411,191.777753 636.058926,192.342212 L636.058926,192.342212 L575.204294,190.378747 Z M475.09434,190.644285 C475.09434,189.765733 475.106488,188.891733 475.130782,188.01925 L475.130782,188.01925 L502.410445,188.900837 C502.395261,189.478951 502.389187,190.060101 502.389187,190.644285 L502.389187,190.644285 C502.389187,198.631674 503.802822,206.295865 506.394739,213.409253 L506.394739,213.409253 L480.735215,222.794132 C477.028788,212.624778 475.09434,201.781715 475.09434,190.644285 L475.09434,190.644285 Z M503.707163,190.644285 C503.707163,190.073757 503.714755,189.507781 503.72842,188.941806 L503.72842,188.941806 L564.584571,190.908306 C564.602791,191.301302 564.669601,191.683677 564.769816,192.050878 L564.769816,192.050878 L507.630721,212.955563 C505.093466,205.984806 503.707163,198.472351 503.707163,190.644285 L503.707163,190.644285 Z M574.889985,192.452979 C575.029678,192.072122 575.125337,191.666986 575.173926,191.249712 L575.173926,191.249712 L636.025521,193.214694 C635.685399,201.953177 633.626442,210.260729 630.165997,217.806566 L630.165997,217.806566 L574.889985,192.452979 Z M507.937439,213.77342 L565.073497,192.870253 C565.214709,193.175243 565.386288,193.463542 565.583681,193.732115 L565.583681,193.732115 L565.220782,194.395201 L521.322178,235.26684 C515.562868,229.082076 510.98184,221.798743 507.937439,213.77342 L507.937439,213.77342 Z M575.298436,195.736549 L574.205184,193.732115 C574.317546,193.577344 574.423834,193.413469 574.519494,193.245042 L574.519494,193.245042 L629.793988,218.597111 C626.265215,226.033698 621.377469,232.710087 615.448098,238.309149 L615.448098,238.309149 L575.298436,195.736549 Z M631.3625,218.357368 C634.89431,210.655243 636.997301,202.176229 637.343497,193.257181 L637.343497,193.257181 L664.629233,194.138767 C664.17523,206.61451 661.287224,218.663875 656.192975,229.746681 L656.192975,229.746681 L631.3625,218.357368 Z M572.068788,195.463424 C572.360322,195.332931 572.636672,195.17816 572.897837,194.999111 L572.897837,194.999111 L601.931258,248.173514 C598.86408,249.865372 595.649617,251.323556 592.309126,252.522271 L592.309126,252.522271 L572.068788,195.463424 Z M537.856089,248.173514 L566.889509,194.999111 C567.076273,195.128087 567.272147,195.243406 567.474095,195.346587 L567.474095,195.346587 L544.345752,251.308382 C542.118252,250.37824 539.953006,249.329743 537.856089,248.173514 L537.856089,248.173514 Z M545.158098,251.640684 L568.28796,195.678889 C568.605307,195.779035 568.940874,195.850351 569.282515,195.889802 L569.282515,195.889802 L567.305552,256.353608 C559.502469,256.05317 552.044064,254.405316 545.158098,251.640684 L545.158098,251.640684 Z M568.181672,256.385472 L570.161672,195.918632 C570.530644,195.900424 570.893543,195.844281 571.241258,195.75324 L571.241258,195.75324 L591.480077,252.812087 C584.711028,255.141236 577.448497,256.408233 569.892914,256.408233 L569.892914,256.408233 C569.321994,256.408233 568.751074,256.400646 568.181672,256.385472 L568.181672,256.385472 Z M521.921948,235.905649 L563.892178,196.829049 L536.33161,247.302549 C531.006564,244.176785 526.156779,240.336344 521.921948,235.905649 L521.921948,235.905649 Z M576.955015,198.768236 L614.804294,238.903955 C611.342331,242.087378 607.538727,244.906635 603.455736,247.302549 L603.455736,247.302549 L576.955015,198.768236 Z M481.037377,223.613507 L506.699939,214.227111 C509.806595,222.417826 514.481764,229.849861 520.362546,236.162083 L520.362546,236.162083 L500.416779,254.731549 C491.857531,245.587931 485.325353,235.034684 481.037377,223.613507 L481.037377,223.613507 Z M616.348512,239.263569 C622.402393,233.552222 627.390353,226.736236 630.988972,219.147913 L630.988972,219.147913 L655.824003,230.538743 C651.208052,240.339378 644.856564,249.369194 636.927454,257.247333 L636.927454,257.247333 C636.30339,257.869451 635.671733,258.476396 635.034003,259.077271 L635.034003,259.077271 L616.348512,239.263569 Z M502.859893,257.247333 C502.235828,256.629767 501.623911,256.00158 501.018067,255.367323 L501.018067,255.367323 L520.959279,236.800892 C525.291288,241.33325 530.253436,245.261698 535.702991,248.455743 L535.702991,248.455743 L522.653819,272.354181 C515.50365,268.258823 508.851518,263.201458 502.859893,257.247333 L502.859893,257.247333 Z M604.084356,248.455743 C608.267561,246.005205 612.160752,243.117667 615.706227,239.858375 L615.706227,239.858375 L634.393236,259.676628 C629.078819,264.588326 623.29066,268.826316 617.133528,272.354181 L617.133528,272.354181 L604.084356,248.455743 Z M592.747945,253.757403 C596.153727,252.535927 599.431963,251.048913 602.559877,249.323674 L602.559877,249.323674 L615.602975,273.214524 C611.184417,275.63775 606.582132,277.699844 601.837117,279.382597 L601.837117,279.382597 L592.747945,253.757403 Z M524.182853,273.214524 L537.227469,249.323674 C539.365383,250.502663 541.573144,251.572403 543.844678,252.520753 L543.844678,252.520753 L533.455752,277.657358 C530.288359,276.347875 527.19385,274.863896 524.182853,273.214524 L524.182853,273.214524 Z M534.269617,277.986625 L544.657025,252.850021 C551.687239,255.675347 559.299003,257.356583 567.261518,257.661573 L567.261518,257.661573 L566.37477,284.775299 C555.206902,284.371681 544.37612,282.056188 534.269617,277.986625 L534.269617,277.986625 Z M591.917377,254.048736 L601.006549,279.669378 C591.13388,283.068267 580.650813,284.839028 569.892914,284.839028 L569.892914,284.839028 C569.012239,284.839028 568.131564,284.825372 567.252408,284.801094 L567.252408,284.801094 L568.140675,257.694955 C568.722224,257.708611 569.30681,257.717715 569.892914,257.717715 L569.892914,257.717715 C577.603374,257.717715 585.01319,256.423406 591.917377,254.048736 L591.917377,254.048736 Z M602.713236,281.854378 C607.590353,280.123069 612.320184,278.006351 616.860215,275.516361 L616.860215,275.516361 L654.068727,343.659531 L485.720138,343.659531 L522.925613,275.516361 C526.020123,277.212771 529.199663,278.736201 532.453604,280.080583 L532.453604,280.080583 L529.125261,288.136253 C528.369095,287.899545 527.56434,287.769052 526.729218,287.769052 L526.729218,287.769052 C522.362285,287.769052 518.821365,291.287813 518.821365,295.625948 L518.821365,295.625948 C518.821365,299.967118 522.362285,303.484361 526.729218,303.484361 L526.729218,303.484361 C531.09615,303.484361 534.637071,299.967118 534.637071,295.625948 L534.637071,295.625948 C534.637071,292.424316 532.708696,289.67334 529.943681,288.44883 L529.943681,288.44883 L533.267469,280.409851 C543.663988,284.597767 554.801488,286.978507 566.288221,287.392747 L566.288221,287.392747 L566.020982,295.632017 C561.737561,295.727611 558.295337,299.205403 558.295337,303.484361 L558.295337,303.484361 C558.295337,307.824014 561.834739,311.341257 566.201672,311.341257 L566.201672,311.341257 C570.570123,311.341257 574.111043,307.824014 574.111043,303.484361 L574.111043,303.484361 C574.111043,299.376865 570.939095,296.008323 566.897101,295.65933 L566.897101,295.65933 L567.167377,287.418542 C568.073865,287.442819 568.98339,287.456476 569.892914,287.456476 L569.892914,287.456476 C580.954494,287.456476 591.732132,285.635642 601.884187,282.14116 L601.884187,282.14116 L604.725123,290.152826 C602.034509,291.406167 600.171426,294.119208 600.171426,297.26925 L600.171426,297.26925 C600.171426,301.607385 603.712347,305.124628 608.077761,305.124628 L608.077761,305.124628 C612.444693,305.124628 615.985613,301.607385 615.985613,297.26925 L615.985613,297.26925 C615.985613,292.92808 612.444693,289.410837 608.077761,289.410837 L608.077761,289.410837 C607.191012,289.410837 606.337669,289.558021 605.542025,289.826594 L605.542025,289.826594 L602.713236,281.854378 Z" id="path-4"></path>
        <path d="M0.728333333,3.033 C0.728333333,4.2315 1.64,5.2035 2.76333333,5.2035 L2.76333333,5.2035 C3.88833333,5.2035 4.80166667,4.2315 4.80166667,3.033 L4.80166667,3.033 C4.80166667,1.8345 3.88833333,0.8625 2.76333333,0.8625 L2.76333333,0.8625 C1.64,0.8625 0.728333333,1.8345 0.728333333,3.033" id="path-6"></path>
        <linearGradient x1="49.9848773%" y1="-0.0101243953%" x2="49.9848773%" y2="100.007153%" id="linearGradient-8">
            <stop stop-color="#3D3A3D" offset="0%"></stop>
            <stop stop-color="#0B191B" offset="100%"></stop>
        </linearGradient>
        <path d="M798.63168,0.713586022 L797.600746,0.713586022 L797.600746,16.5418065 L792.972928,16.5418065 L790.17164,25.4015323 L771.437176,25.4015323 L771.437176,38.9687957 L722.395667,38.9687957 L722.395667,47.8969892 L716.214615,47.8969892 L716.214615,54.8730914 L719.046269,54.8730914 L719.046269,147.38214 L678.01386,147.38214 L678.01386,238.275349 L632.48269,218.174742 L632.48269,129.950253 L639.829807,129.950253 L639.829807,123.470161 L626.907445,123.470161 L626.907445,105.876995 L571.569492,105.876995 L571.569492,123.470161 L553.492457,123.470161 L553.492457,105.876995 L544.200382,105.876995 L544.200382,123.470161 L534.906788,123.470161 L534.906788,105.876995 L524.683987,105.876995 L524.683987,123.470161 L503.310695,123.470161 L503.310695,129.950253 L506.562921,129.950253 L506.562921,252.23364 L485.806064,252.23364 L485.806064,250.951011 L482.049758,250.951011 L482.049758,216.103973 L485.806064,216.103973 L485.806064,213.308968 L482.049758,213.308968 L482.049758,178.46193 L485.806064,178.46193 L485.806064,175.666925 L482.049758,175.666925 L482.049758,140.821409 L485.806064,140.821409 L485.806064,138.026403 L482.049758,138.026403 L482.049758,103.179366 L485.806064,103.179366 L485.806064,100.38436 L482.049758,100.38436 L482.049758,65.5373226 L485.806064,65.5373226 L485.806064,62.7423172 L482.049758,62.7423172 L482.049758,26.6795968 L488.487405,26.6795968 L488.487405,23.8754624 L491.760888,23.8754624 L491.760888,16.2298978 L430.636644,16.2298978 L430.636644,7.72772581 L432.624115,7.72772581 L432.624115,5.27201613 L399.344213,5.27201613 L399.344213,7.72772581 L401.331685,7.72772581 L401.331685,16.2298978 L386.183476,16.2298978 L386.183476,23.8754624 L389.458477,23.8754624 L389.458477,26.6795968 L395.894606,26.6795968 L395.894606,62.7423172 L392.136781,62.7423172 L392.136781,65.5373226 L395.894606,65.5373226 L395.894606,100.38436 L392.136781,100.38436 L392.136781,103.179366 L395.894606,103.179366 L395.894606,138.026403 L392.136781,138.026403 L392.136781,140.821409 L395.894606,140.821409 L395.894606,175.666925 L392.136781,175.666925 L392.136781,178.46193 L395.894606,178.46193 L395.894606,213.308968 L392.136781,213.308968 L392.136781,216.103973 L395.894606,216.103973 L395.894606,250.951011 L392.136781,250.951011 L392.136781,253.744495 L395.894606,253.744495 L395.894606,281.498274 L1366.88157,281.498274 L1366.88157,266.124984 L1002.67017,266.124984 L991.156804,189.404597 L967.613842,189.404597 L967.613842,125.74329 L970.524448,125.74329 L970.524448,119.982871 L959.096107,119.982871 L959.096107,95.1853763 L957.703814,95.1853763 L957.703814,119.982871 L949.804031,119.982871 L949.804031,99.6677312 L948.41022,99.6677312 L948.41022,119.982871 L900.794406,119.982871 L900.794406,125.74329 L904.045114,125.74329 L904.045114,254.914532 L849.681918,254.914532 L849.681918,197.053204 L818.720479,197.053204 L818.720479,54.8730914 L821.552133,54.8730914 L821.552133,47.8969892 L815.369563,47.8969892 L815.369563,38.9687957 L808.251711,38.9687957 L808.251711,35.6123548 L808.251711,25.4015323 L808.251711,16.5418065 L799.665651,16.5418065 L799.665651,0.713586022 L798.63168,0.713586022 Z M267.369412,2.87108065 L267.369412,9.28879032 L248.760968,13.8243978 L248.760968,9.65547312 L238.676333,9.65547312 L238.676333,16.281629 L220.069407,20.8157151 L220.069407,16.0366667 L209.986291,16.0366667 L209.986291,23.2744677 L191.377847,27.8085538 L191.377847,23.8663333 L181.29473,23.8663333 L181.29473,30.2673065 L162.686286,34.802914 L162.686286,31.4053925 L152.601651,31.4053925 L152.601651,276.284075 L138.416053,276.284075 L138.416053,145.732828 L85.8717958,145.732828 L85.8717958,226.012016 L32.0020511,226.012016 L32.0020511,157.553403 L25.3670233,157.553403 L25.3670233,135.07164 L29.3055272,135.07164 L29.3055272,132.812204 L11.8737758,132.812204 L11.8737758,125.74329 L10.0138424,125.74329 L10.0138424,132.812204 L4.43859711,132.812204 L4.43859711,96.5227796 L3.04478579,96.5227796 L3.04478579,132.812204 L0.399884573,132.812204 L0.399884573,281.498274 L375.031467,281.498274 L375.031467,172.18572 L291.082424,172.18572 L291.082424,252.23364 L277.454047,252.23364 L277.454047,2.87108065 L267.369412,2.87108065 Z" id="path-9"></path>
        <linearGradient x1="28.4824622%" y1="0.000104311167%" x2="28.4824622%" y2="128.170518%" id="linearGradient-11">
            <stop stop-color="#3D3A3D" offset="0%"></stop>
            <stop stop-color="#0B191B" offset="100%"></stop>
        </linearGradient>
    </defs>
    <g id="Web" stroke="none" stroke-width="1" fill="none" fill-rule="evenodd" opacity="0.0338420759">
        <g id="Avatar_Main" transform="translate(0.000000, -1215.000000)">
            <g id="Group-13" transform="translate(0.000000, 1215.000000)">
                <g id="Group-3">
                    <mask id="mask-2" fill="white">
                        <use xlink:href="#path-1"></use>
                    </mask>
                    <g id="Clip-2"></g>
                    <polygon id="Fill-1" fill="url(#linearGradient-3)" mask="url(#mask-2)" points="729.18032 447.840486 729.18032 119.962241 582.919759 89.7478056 598.945962 447.840486 169.765418 447.840486 169.765418 245.264044 161.865476 245.264044 161.865476 124.041411 141.470838 124.041411 141.470838 91.5707367 134.186062 91.5707367 134.186062 43.9479937 94.0453659 43.9479937 94.0453659 8.94741379 90.4728486 8.94741379 90.4728486 43.9479937 82.6093612 43.9479937 82.6093612 0.133793103 79.0383628 0.133793103 79.0383628 43.9479937 53.6631609 43.9479937 53.6631609 124.041411 40.554817 124.041411 40.554817 245.264044 29.3177918 245.264044 29.3177918 447.840486 -84.8128975 447.840486 -84.8128975 178.180486 -82.8413297 178.180486 -82.8413297 175.062194 -96.8868517 175.062194 -96.8868517 156.325078 -95.0717334 156.325078 -95.0717334 153.325376 -107.96439 153.325376 -107.96439 142.551991 -106.808486 142.551991 -106.808486 140.250141 -112.358647 140.250141 -112.358647 130.072743 -117.658185 130.072743 -118.482962 130.072743 -118.482962 93.746395 -119.058636 93.746395 -119.787721 93.746395 -120.522882 93.746395 -120.522882 130.072743 -123.000252 130.072743 -123.000252 109.822853 -123.574407 109.822853 -124.303492 109.822853 -125.040172 109.822853 -125.040172 130.072743 -131.164487 130.072743 -131.164487 140.250141 -137.569804 140.250141 -137.569804 142.551991 -135.558744 142.551991 -135.558744 153.325376 -148.451401 153.325376 -148.451401 156.325078 -146.636282 156.325078 -146.636282 175.062194 -160.681804 175.062194 -160.681804 178.180486 -158.710237 178.180486 -158.710237 447.840486 -539.348897 447.840486 -539.348897 484.616865 961.261801 484.616865 961.261801 447.840486"></polygon>
                </g>
                <g id="Group-6" transform="translate(0.000000, 86.000000)">
                    <mask id="mask-5" fill="white">
                        <use xlink:href="#path-4"></use>
                    </mask>
                    <g id="Clip-5"></g>
                    <path d="M279.578451,0.10925 L279.578451,33.3515972 L275.433206,33.3515972 L275.433206,52.7449896 L263.618497,52.7449896 L263.618497,75.8301215 L241.704877,75.8301215 L241.704877,136.469941 L237.149663,136.469941 L237.149663,246.559042 L203.170798,246.559042 L203.170798,343.659531 L90.4459356,343.659531 L90.4459356,155.908854 L99.5077761,155.908854 L99.5077761,152.953035 L90.4459356,152.953035 L90.4459356,147.665031 L78.9637577,147.665031 L78.9637577,138.976622 L0.399969325,138.976622 L0.399969325,435.502365 L988.262055,435.502365 L988.262055,395.020687 L986.03911,395.020687 L986.03911,361.980149 L939.295015,361.980149 L921.602561,231.925611 L918.94839,231.925611 L918.94839,216.301344 L909.655752,216.301344 L909.655752,231.925611 L907.35385,231.925611 L907.35385,226.082253 L900.849003,226.082253 L900.849003,231.925611 L887.37316,231.925611 L887.37316,218.30426 L883.653067,218.30426 L883.653067,208.837444 L857.167531,208.837444 L857.167531,218.30426 L853.450475,218.30426 L853.450475,231.925611 L849.73342,231.925611 L849.73342,310.036326 L826.187515,310.036326 L826.187515,111.841653 L818.44365,111.841653 L818.44365,68.3783611 L815.965613,68.3783611 L815.965613,111.841653 L810.080276,111.841653 L810.080276,51.5462743 L807.602239,51.5462743 L807.602239,111.841653 L802.491288,111.841653 L802.491288,79.2047326 L800.013252,79.2047326 L800.013252,111.841653 L754.318374,111.841653 L754.318374,252.522271 L703.514064,252.522271 L703.514064,343.659531 L656.066948,343.659531 L618.392285,274.657535 C624.742255,271.024972 630.71566,266.654972 636.195583,261.586986 L636.195583,261.586986 L643.921227,269.779219 C642.263129,271.220712 641.213911,273.335913 641.213911,275.69541 L641.213911,275.69541 C641.213911,280.03658 644.754831,283.553823 649.121764,283.553823 L649.121764,283.553823 C653.488696,283.553823 657.029617,280.03658 657.029617,275.69541 L657.029617,275.69541 C657.029617,271.357274 653.488696,267.840031 649.121764,267.840031 L649.121764,267.840031 C647.446963,267.840031 645.896672,268.357451 644.616656,269.240556 L644.616656,269.240556 L636.83635,260.987628 C637.493819,260.368545 638.146733,259.741875 638.790537,259.101549 L638.790537,259.101549 C646.944371,250.99884 653.473512,241.715625 658.218528,231.637312 L658.218528,231.637312 L666.823328,235.583969 C666.666933,236.200017 666.58342,236.843378 666.58342,237.507983 L666.58342,237.507983 C666.58342,241.846118 670.12434,245.364878 674.491273,245.364878 L674.491273,245.364878 C678.858206,245.364878 682.397607,241.846118 682.397607,237.507983 L682.397607,237.507983 C682.397607,233.16833 678.858206,229.649569 674.491273,229.649569 L674.491273,229.649569 C671.103712,229.649569 668.212669,231.767806 667.087531,234.744868 L667.087531,234.744868 L658.5875,230.84525 C663.827515,219.445316 666.797515,207.054545 667.263666,194.22374 L667.263666,194.22374 L676.525936,194.52266 C676.639816,198.765201 680.133666,202.168642 684.429233,202.168642 L684.429233,202.168642 C688.796166,202.168642 692.335567,198.648365 692.335567,194.310229 L692.335567,194.310229 C692.335567,189.972094 688.796166,186.453333 684.429233,186.453333 L684.429233,186.453333 C680.285506,186.453333 676.888834,189.620066 676.55023,193.650177 L676.55023,193.650177 L667.289479,193.351257 C667.315291,192.449944 667.328957,191.547115 667.328957,190.644285 L667.328957,190.644285 C667.328957,179.189726 665.339847,168.043191 661.527132,157.585538 L661.527132,157.585538 L669.264923,154.75566 C670.478129,157.541535 673.270475,159.491344 676.52138,159.491344 L676.52138,159.491344 C680.888313,159.491344 684.429233,155.972583 684.429233,151.634448 L684.429233,151.634448 C684.429233,147.294795 680.888313,143.776035 676.52138,143.776035 L676.52138,143.776035 C672.152929,143.776035 668.613528,147.294795 668.613528,151.634448 L668.613528,151.634448 C668.613528,152.434097 668.735,153.207951 668.959724,153.936285 L668.959724,153.936285 L661.223451,156.764646 C656.81704,145.018753 650.09658,134.165069 641.292868,124.7635 L641.292868,124.7635 L647.346748,119.126503 C648.766457,120.47392 650.688758,121.300882 652.806933,121.300882 L652.806933,121.300882 C657.173865,121.300882 660.714785,117.785156 660.714785,113.443986 L660.714785,113.443986 C660.714785,109.105851 657.173865,105.588608 652.806933,105.588608 L652.806933,105.588608 C648.438482,105.588608 644.89908,109.105851 644.89908,113.443986 L644.89908,113.443986 C644.89908,115.366483 645.594509,117.125104 646.74546,118.490729 L646.74546,118.490729 L640.690061,124.127726 C640.067515,123.472226 639.43434,122.82583 638.790537,122.185503 L638.790537,122.185503 C629.623926,113.076785 618.952577,106.007399 607.332224,101.204951 L607.332224,101.204951 L610.663604,93.1477639 C611.41977,93.3859896 612.223006,93.5164826 613.058129,93.5164826 L613.058129,93.5164826 C617.425061,93.5164826 620.964463,89.9977222 620.964463,85.6580694 L620.964463,85.6580694 C620.964463,81.319934 617.425061,77.802691 613.058129,77.802691 L613.058129,77.802691 C608.691196,77.802691 605.148758,81.319934 605.148758,85.6580694 L605.148758,85.6580694 C605.148758,88.8597014 607.07865,91.6106771 609.842147,92.8367049 L609.842147,92.8367049 L606.519877,100.874167 C596.124877,96.6877674 584.985859,94.3055104 573.497607,93.8927882 L573.497607,93.8927882 L573.858988,82.8812986 C573.9425,82.882816 574.026012,82.8873681 574.111043,82.8873681 L574.111043,82.8873681 C578.476457,82.8873681 582.017377,79.3716424 582.017377,75.0304722 L582.017377,75.0304722 C582.017377,70.6908194 578.476457,67.1735764 574.111043,67.1735764 L574.111043,67.1735764 C569.742592,67.1735764 566.201672,70.6908194 566.201672,75.0304722 L566.201672,75.0304722 C566.201672,78.9892674 569.150414,82.2637326 572.98135,82.8069479 L572.98135,82.8069479 L572.619969,93.8654757 C571.713482,93.8411979 570.803957,93.829059 569.892914,93.829059 L569.892914,93.829059 C558.832853,93.829059 548.053696,95.648375 537.901641,99.1428576 L537.901641,99.1428576 L534.714509,90.1555278 C537.591887,88.9795729 539.61592,86.1694201 539.61592,82.8873681 L539.61592,82.8873681 C539.61592,78.5492326 536.076518,75.0304722 531.708067,75.0304722 L531.708067,75.0304722 C527.342653,75.0304722 523.800215,78.5492326 523.800215,82.8873681 L523.800215,82.8873681 C523.800215,87.2270208 527.342653,90.7457812 531.708067,90.7457812 L531.708067,90.7457812 C532.462715,90.7457812 533.193067,90.6380486 533.883942,90.4407917 L533.883942,90.4407917 L537.07411,99.4326736 C524.762883,103.795087 513.394586,110.636868 503.591764,119.698549 L503.591764,119.698549 L497.814233,113.569927 C499.106396,112.172437 499.895966,110.306083 499.895966,108.257646 L499.895966,108.257646 C499.895966,103.917993 496.355046,100.402267 491.988113,100.402267 L491.988113,100.402267 C487.621181,100.402267 484.081779,103.917993 484.081779,108.257646 L484.081779,108.257646 C484.081779,112.598816 487.621181,116.116059 491.988113,116.116059 L491.988113,116.116059 C493.975706,116.116059 495.793236,115.384691 497.182577,114.179906 L497.182577,114.179906 L502.950997,120.296389 C502.293528,120.915472 501.640613,121.545177 500.99681,122.185503 L500.99681,122.185503 C492.841457,130.285177 486.313834,139.571427 481.568819,149.648222 L481.568819,149.648222 L474.225813,146.279681 C474.491534,145.493687 474.637301,144.653069 474.637301,143.776035 L474.637301,143.776035 C474.637301,139.437899 471.097899,135.920656 466.729448,135.920656 L466.729448,135.920656 C462.362515,135.920656 458.823113,139.437899 458.823113,143.776035 L458.823113,143.776035 C458.823113,148.117205 462.362515,151.634448 466.729448,151.634448 L466.729448,151.634448 C469.904433,151.634448 472.642117,149.775681 473.900874,147.092986 L473.900874,147.092986 L481.198328,150.440285 C475.959831,161.840219 472.989831,174.23099 472.523681,187.061795 L472.523681,187.061795 L463.097423,186.756806 C462.982025,182.517299 459.488175,179.11841 455.195644,179.11841 L455.195644,179.11841 C450.828712,179.11841 447.287791,182.635653 447.287791,186.975306 L447.287791,186.975306 C447.287791,191.313441 450.828712,194.832201 455.195644,194.832201 L455.195644,194.832201 C459.34089,194.832201 462.737561,191.662434 463.074647,187.629288 L463.074647,187.629288 L472.49635,187.934278 C472.472055,188.834073 472.45839,189.73842 472.45839,190.644285 L472.45839,190.644285 C472.45839,202.095809 474.4475,213.243861 478.260215,223.699997 L478.260215,223.699997 L470.523942,226.531392 C469.309218,223.744 466.516871,221.794191 463.265966,221.794191 L463.265966,221.794191 C458.899034,221.794191 455.358113,225.311434 455.358113,229.649569 L455.358113,229.649569 C455.358113,233.989222 458.899034,237.507983 463.265966,237.507983 L463.265966,237.507983 C467.632899,237.507983 471.173819,233.989222 471.173819,229.649569 L471.173819,229.649569 C471.173819,228.84992 471.052347,228.076066 470.827623,227.350767 L470.827623,227.350767 L478.562377,224.520889 C482.968788,236.265264 489.690767,247.118948 498.494479,256.522035 L498.494479,256.522035 L492.440598,262.159031 C491.02089,260.811615 489.098589,259.983135 486.980414,259.983135 L486.980414,259.983135 C482.613482,259.983135 479.072561,263.500378 479.072561,267.840031 L479.072561,267.840031 C479.072561,272.179684 482.613482,275.69541 486.980414,275.69541 L486.980414,275.69541 C491.348865,275.69541 494.888267,272.179684 494.888267,267.840031 L494.888267,267.840031 C494.888267,265.917535 494.194356,264.158913 493.041887,262.794806 L493.041887,262.794806 L499.095767,257.157809 C499.718313,257.811792 500.353006,258.461222 500.99681,259.101549 L500.99681,259.101549 C507.170644,265.234722 514.026242,270.443823 521.395061,274.657535 L521.395061,274.657535 L483.71888,343.659531 L453.206534,343.659531 L453.206534,296.880806 L440.767761,296.880806 L440.767761,208.056003 L445.60388,208.056003 L445.60388,206.124403 L338.718804,206.124403 L338.718804,208.056003 L343.554923,208.056003 L343.554923,252.850021 L333.076411,252.850021 L323.079233,303.906187 L323.079233,136.469941 L318.692561,136.469941 L318.692561,75.8301215 L296.610399,75.8301215 L296.610399,52.7449896 L284.79569,52.7449896 L284.79569,33.3515972 L280.650445,33.3515972 L280.650445,0.10925 L279.578451,0.10925 Z M538.779279,101.614639 C548.651948,98.2172674 559.136534,96.4480243 569.892914,96.4480243 L569.892914,96.4480243 C570.776626,96.4480243 571.655782,96.4601632 572.534939,96.484441 L572.534939,96.484441 L571.64819,123.59058 C571.063604,123.575406 570.479018,123.567819 569.892914,123.567819 L569.892914,123.567819 C562.183972,123.567819 554.775675,124.862128 547.868451,127.238316 L547.868451,127.238316 L538.779279,101.614639 Z M572.525828,123.622444 L573.414095,96.5117535 C584.580445,96.9123368 595.411227,99.2293472 605.51773,103.297392 L605.51773,103.297392 L595.128804,128.433997 C588.100107,125.60867 580.488344,123.928951 572.525828,123.622444 L572.525828,123.622444 Z M505.392592,121.610424 C514.925138,112.800625 525.980644,106.148514 537.95023,101.904455 L537.95023,101.904455 L547.04092,127.528132 C538.446748,130.609892 530.65885,135.377441 524.08112,141.42716 L524.08112,141.42716 L505.392592,121.610424 Z M595.942669,128.764781 L606.331595,103.628177 C617.633083,108.301649 628.01138,115.17833 636.927454,124.036684 L636.927454,124.036684 C637.55,124.657285 638.163436,125.285472 638.767761,125.916694 L638.767761,125.916694 L618.826549,144.484642 C612.421917,137.783976 604.64161,132.395826 595.942669,128.764781 L595.942669,128.764781 Z M483.963344,150.746792 C488.579294,140.946156 494.930782,131.91634 502.859893,124.036684 L502.859893,124.036684 C503.483957,123.416083 504.115613,122.807622 504.753344,122.206747 L504.753344,122.206747 L523.438834,142.020448 C517.384954,147.73483 512.398512,154.550816 508.796856,162.137622 L508.796856,162.137622 L483.963344,150.746792 Z M548.30727,128.471931 C555.076319,126.145816 562.337331,124.877302 569.892914,124.877302 L569.892914,124.877302 C570.465353,124.877302 571.036273,124.884889 571.604156,124.898545 L571.604156,124.898545 L569.627193,185.366903 C569.255184,185.385111 568.893804,185.441253 568.547607,185.530778 L568.547607,185.530778 L548.30727,128.471931 Z M570.503313,185.395733 L572.483313,124.931927 C580.283359,125.232365 587.741764,126.878701 594.629248,129.644851 L594.629248,129.644851 L571.500905,185.605128 C571.180521,185.5065 570.846472,185.435184 570.503313,185.395733 L570.503313,185.395733 Z M619.426319,145.123451 L639.370567,126.553986 C647.929816,135.697604 654.465031,146.250851 658.748451,157.67051 L658.748451,157.67051 L633.087408,167.058424 C629.979233,158.867708 625.304064,151.435674 619.426319,145.123451 L619.426319,145.123451 Z M524.983052,142.38158 C531.428681,136.456285 539.058666,131.78433 547.476702,128.763264 L547.476702,128.763264 L567.71704,185.823628 C567.313144,186.002677 566.93658,186.233316 566.591902,186.504924 L566.591902,186.504924 L524.983052,142.38158 Z M572.313252,185.938948 L595.441595,129.975635 C603.967439,133.533847 611.589831,138.815781 617.865399,145.379885 L617.865399,145.379885 L573.458129,186.724941 C573.114969,186.415399 572.729294,186.149861 572.313252,185.938948 L572.313252,185.938948 Z M509.993359,162.686906 C513.522132,155.251837 518.409877,148.573931 524.340767,142.976385 L524.340767,142.976385 L565.951135,187.098212 C565.689969,187.38651 565.46069,187.702122 565.267853,188.040493 L565.267853,188.040493 L509.993359,162.686906 Z M574.059417,187.362233 L618.465169,146.017177 C624.224479,152.201941 628.805506,159.485274 631.849908,167.510597 L631.849908,167.510597 L574.712331,188.413764 C574.536196,188.035941 574.317546,187.683913 574.059417,187.362233 L574.059417,187.362233 Z M475.158113,187.146767 C475.612117,174.671024 478.500123,162.62166 483.594371,151.538854 L483.594371,151.538854 L508.424847,162.928167 C504.894555,170.630292 502.790046,179.109306 502.445368,188.026837 L502.445368,188.026837 L475.158113,187.146767 Z M637.375383,192.386215 C637.392086,191.806583 637.39816,191.225434 637.39816,190.644285 L637.39816,190.644285 C637.39816,182.653861 635.983006,174.98967 633.392607,167.877799 L633.392607,167.877799 L659.052132,158.489885 C662.760077,168.660757 664.693006,179.503819 664.693006,190.644285 L664.693006,190.644285 C664.693006,191.519802 664.67934,192.392285 664.656564,193.266285 L664.656564,193.266285 L637.375383,192.386215 Z M503.761825,188.07084 C504.101948,179.332358 506.162423,171.023288 509.62135,163.477451 L509.62135,163.477451 L564.89888,188.831038 C564.757669,189.214931 564.662009,189.617031 564.61342,190.034306 L564.61342,190.034306 L503.761825,188.07084 Z M575.204294,190.378747 C575.183037,189.982715 575.119264,189.60034 575.016012,189.233139 L575.016012,189.233139 L632.156626,168.329972 C634.69388,175.299212 636.080184,182.813184 636.080184,190.644285 L636.080184,190.644285 C636.080184,191.21026 636.07411,191.777753 636.058926,192.342212 L636.058926,192.342212 L575.204294,190.378747 Z M475.09434,190.644285 C475.09434,189.765733 475.106488,188.891733 475.130782,188.01925 L475.130782,188.01925 L502.410445,188.900837 C502.395261,189.478951 502.389187,190.060101 502.389187,190.644285 L502.389187,190.644285 C502.389187,198.631674 503.802822,206.295865 506.394739,213.409253 L506.394739,213.409253 L480.735215,222.794132 C477.028788,212.624778 475.09434,201.781715 475.09434,190.644285 L475.09434,190.644285 Z M503.707163,190.644285 C503.707163,190.073757 503.714755,189.507781 503.72842,188.941806 L503.72842,188.941806 L564.584571,190.908306 C564.602791,191.301302 564.669601,191.683677 564.769816,192.050878 L564.769816,192.050878 L507.630721,212.955563 C505.093466,205.984806 503.707163,198.472351 503.707163,190.644285 L503.707163,190.644285 Z M574.889985,192.452979 C575.029678,192.072122 575.125337,191.666986 575.173926,191.249712 L575.173926,191.249712 L636.025521,193.214694 C635.685399,201.953177 633.626442,210.260729 630.165997,217.806566 L630.165997,217.806566 L574.889985,192.452979 Z M507.937439,213.77342 L565.073497,192.870253 C565.214709,193.175243 565.386288,193.463542 565.583681,193.732115 L565.583681,193.732115 L565.220782,194.395201 L521.322178,235.26684 C515.562868,229.082076 510.98184,221.798743 507.937439,213.77342 L507.937439,213.77342 Z M575.298436,195.736549 L574.205184,193.732115 C574.317546,193.577344 574.423834,193.413469 574.519494,193.245042 L574.519494,193.245042 L629.793988,218.597111 C626.265215,226.033698 621.377469,232.710087 615.448098,238.309149 L615.448098,238.309149 L575.298436,195.736549 Z M631.3625,218.357368 C634.89431,210.655243 636.997301,202.176229 637.343497,193.257181 L637.343497,193.257181 L664.629233,194.138767 C664.17523,206.61451 661.287224,218.663875 656.192975,229.746681 L656.192975,229.746681 L631.3625,218.357368 Z M572.068788,195.463424 C572.360322,195.332931 572.636672,195.17816 572.897837,194.999111 L572.897837,194.999111 L601.931258,248.173514 C598.86408,249.865372 595.649617,251.323556 592.309126,252.522271 L592.309126,252.522271 L572.068788,195.463424 Z M537.856089,248.173514 L566.889509,194.999111 C567.076273,195.128087 567.272147,195.243406 567.474095,195.346587 L567.474095,195.346587 L544.345752,251.308382 C542.118252,250.37824 539.953006,249.329743 537.856089,248.173514 L537.856089,248.173514 Z M545.158098,251.640684 L568.28796,195.678889 C568.605307,195.779035 568.940874,195.850351 569.282515,195.889802 L569.282515,195.889802 L567.305552,256.353608 C559.502469,256.05317 552.044064,254.405316 545.158098,251.640684 L545.158098,251.640684 Z M568.181672,256.385472 L570.161672,195.918632 C570.530644,195.900424 570.893543,195.844281 571.241258,195.75324 L571.241258,195.75324 L591.480077,252.812087 C584.711028,255.141236 577.448497,256.408233 569.892914,256.408233 L569.892914,256.408233 C569.321994,256.408233 568.751074,256.400646 568.181672,256.385472 L568.181672,256.385472 Z M521.921948,235.905649 L563.892178,196.829049 L536.33161,247.302549 C531.006564,244.176785 526.156779,240.336344 521.921948,235.905649 L521.921948,235.905649 Z M576.955015,198.768236 L614.804294,238.903955 C611.342331,242.087378 607.538727,244.906635 603.455736,247.302549 L603.455736,247.302549 L576.955015,198.768236 Z M481.037377,223.613507 L506.699939,214.227111 C509.806595,222.417826 514.481764,229.849861 520.362546,236.162083 L520.362546,236.162083 L500.416779,254.731549 C491.857531,245.587931 485.325353,235.034684 481.037377,223.613507 L481.037377,223.613507 Z M616.348512,239.263569 C622.402393,233.552222 627.390353,226.736236 630.988972,219.147913 L630.988972,219.147913 L655.824003,230.538743 C651.208052,240.339378 644.856564,249.369194 636.927454,257.247333 L636.927454,257.247333 C636.30339,257.869451 635.671733,258.476396 635.034003,259.077271 L635.034003,259.077271 L616.348512,239.263569 Z M502.859893,257.247333 C502.235828,256.629767 501.623911,256.00158 501.018067,255.367323 L501.018067,255.367323 L520.959279,236.800892 C525.291288,241.33325 530.253436,245.261698 535.702991,248.455743 L535.702991,248.455743 L522.653819,272.354181 C515.50365,268.258823 508.851518,263.201458 502.859893,257.247333 L502.859893,257.247333 Z M604.084356,248.455743 C608.267561,246.005205 612.160752,243.117667 615.706227,239.858375 L615.706227,239.858375 L634.393236,259.676628 C629.078819,264.588326 623.29066,268.826316 617.133528,272.354181 L617.133528,272.354181 L604.084356,248.455743 Z M592.747945,253.757403 C596.153727,252.535927 599.431963,251.048913 602.559877,249.323674 L602.559877,249.323674 L615.602975,273.214524 C611.184417,275.63775 606.582132,277.699844 601.837117,279.382597 L601.837117,279.382597 L592.747945,253.757403 Z M524.182853,273.214524 L537.227469,249.323674 C539.365383,250.502663 541.573144,251.572403 543.844678,252.520753 L543.844678,252.520753 L533.455752,277.657358 C530.288359,276.347875 527.19385,274.863896 524.182853,273.214524 L524.182853,273.214524 Z M534.269617,277.986625 L544.657025,252.850021 C551.687239,255.675347 559.299003,257.356583 567.261518,257.661573 L567.261518,257.661573 L566.37477,284.775299 C555.206902,284.371681 544.37612,282.056188 534.269617,277.986625 L534.269617,277.986625 Z M591.917377,254.048736 L601.006549,279.669378 C591.13388,283.068267 580.650813,284.839028 569.892914,284.839028 L569.892914,284.839028 C569.012239,284.839028 568.131564,284.825372 567.252408,284.801094 L567.252408,284.801094 L568.140675,257.694955 C568.722224,257.708611 569.30681,257.717715 569.892914,257.717715 L569.892914,257.717715 C577.603374,257.717715 585.01319,256.423406 591.917377,254.048736 L591.917377,254.048736 Z M602.713236,281.854378 C607.590353,280.123069 612.320184,278.006351 616.860215,275.516361 L616.860215,275.516361 L654.068727,343.659531 L485.720138,343.659531 L522.925613,275.516361 C526.020123,277.212771 529.199663,278.736201 532.453604,280.080583 L532.453604,280.080583 L529.125261,288.136253 C528.369095,287.899545 527.56434,287.769052 526.729218,287.769052 L526.729218,287.769052 C522.362285,287.769052 518.821365,291.287813 518.821365,295.625948 L518.821365,295.625948 C518.821365,299.967118 522.362285,303.484361 526.729218,303.484361 L526.729218,303.484361 C531.09615,303.484361 534.637071,299.967118 534.637071,295.625948 L534.637071,295.625948 C534.637071,292.424316 532.708696,289.67334 529.943681,288.44883 L529.943681,288.44883 L533.267469,280.409851 C543.663988,284.597767 554.801488,286.978507 566.288221,287.392747 L566.288221,287.392747 L566.020982,295.632017 C561.737561,295.727611 558.295337,299.205403 558.295337,303.484361 L558.295337,303.484361 C558.295337,307.824014 561.834739,311.341257 566.201672,311.341257 L566.201672,311.341257 C570.570123,311.341257 574.111043,307.824014 574.111043,303.484361 L574.111043,303.484361 C574.111043,299.376865 570.939095,296.008323 566.897101,295.65933 L566.897101,295.65933 L567.167377,287.418542 C568.073865,287.442819 568.98339,287.456476 569.892914,287.456476 L569.892914,287.456476 C580.954494,287.456476 591.732132,285.635642 601.884187,282.14116 L601.884187,282.14116 L604.725123,290.152826 C602.034509,291.406167 600.171426,294.119208 600.171426,297.26925 L600.171426,297.26925 C600.171426,301.607385 603.712347,305.124628 608.077761,305.124628 L608.077761,305.124628 C612.444693,305.124628 615.985613,301.607385 615.985613,297.26925 L615.985613,297.26925 C615.985613,292.92808 612.444693,289.410837 608.077761,289.410837 L608.077761,289.410837 C607.191012,289.410837 606.337669,289.558021 605.542025,289.826594 L605.542025,289.826594 L602.713236,281.854378 Z" id="Fill-4" mask="url(#mask-5)"></path>
                </g>
                <g id="Group-9" transform="translate(796.000000, 236.000000)">
                    <mask id="mask-7" fill="white">
                        <use xlink:href="#path-6"></use>
                    </mask>
                    <g id="Clip-8"></g>
                    <path d="M0.728333333,3.033 C0.728333333,4.2315 1.64,5.2035 2.76333333,5.2035 L2.76333333,5.2035 C3.88833333,5.2035 4.80166667,4.2315 4.80166667,3.033 L4.80166667,3.033 C4.80166667,1.8345 3.88833333,0.8625 2.76333333,0.8625 L2.76333333,0.8625 C1.64,0.8625 0.728333333,1.8345 0.728333333,3.033" id="Fill-7" fill="url(#linearGradient-8)" mask="url(#mask-7)"></path>
                </g>
                <g id="Group-12" transform="translate(0.000000, 240.000000)">
                    <mask id="mask-10" fill="white">
                        <use xlink:href="#path-9"></use>
                    </mask>
                    <g id="Clip-11"></g>
                    <path d="M798.63168,0.713586022 L797.600746,0.713586022 L797.600746,16.5418065 L792.972928,16.5418065 L790.17164,25.4015323 L771.437176,25.4015323 L771.437176,38.9687957 L722.395667,38.9687957 L722.395667,47.8969892 L716.214615,47.8969892 L716.214615,54.8730914 L719.046269,54.8730914 L719.046269,147.38214 L678.01386,147.38214 L678.01386,238.275349 L632.48269,218.174742 L632.48269,129.950253 L639.829807,129.950253 L639.829807,123.470161 L626.907445,123.470161 L626.907445,105.876995 L571.569492,105.876995 L571.569492,123.470161 L553.492457,123.470161 L553.492457,105.876995 L544.200382,105.876995 L544.200382,123.470161 L534.906788,123.470161 L534.906788,105.876995 L524.683987,105.876995 L524.683987,123.470161 L503.310695,123.470161 L503.310695,129.950253 L506.562921,129.950253 L506.562921,252.23364 L485.806064,252.23364 L485.806064,250.951011 L482.049758,250.951011 L482.049758,216.103973 L485.806064,216.103973 L485.806064,213.308968 L482.049758,213.308968 L482.049758,178.46193 L485.806064,178.46193 L485.806064,175.666925 L482.049758,175.666925 L482.049758,140.821409 L485.806064,140.821409 L485.806064,138.026403 L482.049758,138.026403 L482.049758,103.179366 L485.806064,103.179366 L485.806064,100.38436 L482.049758,100.38436 L482.049758,65.5373226 L485.806064,65.5373226 L485.806064,62.7423172 L482.049758,62.7423172 L482.049758,26.6795968 L488.487405,26.6795968 L488.487405,23.8754624 L491.760888,23.8754624 L491.760888,16.2298978 L430.636644,16.2298978 L430.636644,7.72772581 L432.624115,7.72772581 L432.624115,5.27201613 L399.344213,5.27201613 L399.344213,7.72772581 L401.331685,7.72772581 L401.331685,16.2298978 L386.183476,16.2298978 L386.183476,23.8754624 L389.458477,23.8754624 L389.458477,26.6795968 L395.894606,26.6795968 L395.894606,62.7423172 L392.136781,62.7423172 L392.136781,65.5373226 L395.894606,65.5373226 L395.894606,100.38436 L392.136781,100.38436 L392.136781,103.179366 L395.894606,103.179366 L395.894606,138.026403 L392.136781,138.026403 L392.136781,140.821409 L395.894606,140.821409 L395.894606,175.666925 L392.136781,175.666925 L392.136781,178.46193 L395.894606,178.46193 L395.894606,213.308968 L392.136781,213.308968 L392.136781,216.103973 L395.894606,216.103973 L395.894606,250.951011 L392.136781,250.951011 L392.136781,253.744495 L395.894606,253.744495 L395.894606,281.498274 L1366.88157,281.498274 L1366.88157,266.124984 L1002.67017,266.124984 L991.156804,189.404597 L967.613842,189.404597 L967.613842,125.74329 L970.524448,125.74329 L970.524448,119.982871 L959.096107,119.982871 L959.096107,95.1853763 L957.703814,95.1853763 L957.703814,119.982871 L949.804031,119.982871 L949.804031,99.6677312 L948.41022,99.6677312 L948.41022,119.982871 L900.794406,119.982871 L900.794406,125.74329 L904.045114,125.74329 L904.045114,254.914532 L849.681918,254.914532 L849.681918,197.053204 L818.720479,197.053204 L818.720479,54.8730914 L821.552133,54.8730914 L821.552133,47.8969892 L815.369563,47.8969892 L815.369563,38.9687957 L808.251711,38.9687957 L808.251711,35.6123548 L808.251711,25.4015323 L808.251711,16.5418065 L799.665651,16.5418065 L799.665651,0.713586022 L798.63168,0.713586022 Z M267.369412,2.87108065 L267.369412,9.28879032 L248.760968,13.8243978 L248.760968,9.65547312 L238.676333,9.65547312 L238.676333,16.281629 L220.069407,20.8157151 L220.069407,16.0366667 L209.986291,16.0366667 L209.986291,23.2744677 L191.377847,27.8085538 L191.377847,23.8663333 L181.29473,23.8663333 L181.29473,30.2673065 L162.686286,34.802914 L162.686286,31.4053925 L152.601651,31.4053925 L152.601651,276.284075 L138.416053,276.284075 L138.416053,145.732828 L85.8717958,145.732828 L85.8717958,226.012016 L32.0020511,226.012016 L32.0020511,157.553403 L25.3670233,157.553403 L25.3670233,135.07164 L29.3055272,135.07164 L29.3055272,132.812204 L11.8737758,132.812204 L11.8737758,125.74329 L10.0138424,125.74329 L10.0138424,132.812204 L4.43859711,132.812204 L4.43859711,96.5227796 L3.04478579,96.5227796 L3.04478579,132.812204 L0.399884573,132.812204 L0.399884573,281.498274 L375.031467,281.498274 L375.031467,172.18572 L291.082424,172.18572 L291.082424,252.23364 L277.454047,252.23364 L277.454047,2.87108065 L267.369412,2.87108065 Z" id="Fill-10" fill="url(#linearGradient-11)" mask="url(#mask-10)"></path>
                </g>
            </g>
        </g>
    </g>
</svg>